# This file uses centimeters as units for non-parametric coordinates.

mtllib pecera_cristal.mtl
g default
v 3.554156 0.836030 -6.928288
v 3.554156 2.590162 -6.928288
v 6.139876 2.590162 -6.916034
v 3.555796 2.590162 -2.693558
v 3.555796 0.836030 -2.693558
v 6.141620 0.836030 -2.699971
v 6.141620 2.590162 -2.699971
v 6.141620 2.590162 -2.699971
v 6.141620 0.836030 -2.699971
v 6.130485 0.836030 -4.799608
v 6.130485 2.590162 -4.799608
v 6.139876 0.836030 -6.916034
v 6.139876 2.590162 -6.916034
v 3.554156 2.590162 -6.928288
v 3.554156 0.836030 -6.928288
v 3.544621 0.836030 -4.799608
v 3.544621 2.590162 -4.799608
v 3.555796 0.836030 -2.693558
v 3.555796 2.590162 -2.693558
v 6.139876 0.836030 -6.916034
v 3.495818 2.624351 -6.998093
v 6.182330 2.624351 -7.010825
v 6.182330 0.801842 -7.010825
v 3.494005 0.801842 -2.617685
v 6.180626 0.801842 -2.611022
v 6.180626 2.624351 -2.611022
v 3.494005 2.624351 -2.617685
v 3.505575 2.624351 -4.799168
v 3.495818 2.624351 -6.998093
v 3.495818 0.801842 -6.998093
v 3.505575 0.801842 -4.799168
v 3.494005 2.624351 -2.617685
v 3.494005 0.801842 -2.617685
v 6.192238 0.801842 -4.799168
v 6.182330 0.801842 -7.010825
v 6.182330 2.624351 -7.010825
v 6.192238 2.624351 -4.799168
v 6.180626 0.801842 -2.611022
v 6.180626 2.624351 -2.611022
v 6.192238 2.624351 -4.799168
v 6.182330 2.624351 -7.010825
v 3.495818 2.624351 -6.998093
v 3.505575 2.624351 -4.799168
v 6.180626 2.624351 -2.611022
v 3.494005 2.624351 -2.617685
v 3.495818 0.801842 -6.998093
v 3.534058 2.598487 -6.936014
v 6.144320 2.598487 -6.948384
v 6.144320 0.827706 -6.948384
v 3.532298 0.827706 -2.679935
v 6.142664 0.827706 -2.673462
v 6.142664 2.598487 -2.673462
v 3.532298 2.598487 -2.679935
v 3.543539 0.827706 -4.799501
v 3.532298 0.827706 -2.679935
v 3.532298 2.598487 -2.679935
v 3.543539 2.598487 -4.799501
v 3.534058 0.827706 -6.936014
v 3.534058 2.598487 -6.936014
v 6.153945 0.827706 -4.799501
v 6.144320 0.827706 -6.948384
v 6.144320 2.598487 -6.948384
v 6.153945 2.598487 -4.799501
v 6.142664 0.827706 -2.673462
v 6.142664 2.598487 -2.673462
v 3.534058 0.827706 -6.936014
v 3.554156 0.836030 -6.928288
v 3.554156 2.590162 -6.928288
v 6.139876 2.590162 -6.916034
v 3.555796 2.590162 -2.693558
v 3.555796 0.836030 -2.693558
v 6.141620 0.836030 -2.699971
v 6.141620 2.590162 -2.699971
v 6.141620 2.590162 -2.699971
v 6.141620 0.836030 -2.699971
v 6.130485 0.836030 -4.799608
v 6.130485 2.590162 -4.799608
v 6.139876 0.836030 -6.916034
v 6.139876 2.590162 -6.916034
v 3.554156 2.590162 -6.928288
v 3.554156 0.836030 -6.928288
v 3.544621 0.836030 -4.799608
v 3.544621 2.590162 -4.799608
v 3.555796 0.836030 -2.693558
v 3.555796 2.590162 -2.693558
v 6.139876 0.836030 -6.916034
v 3.534058 2.598487 -6.936014
v 6.144320 2.598487 -6.948384
v 6.144320 0.827706 -6.948384
v 3.532298 0.827706 -2.679935
v 6.142664 0.827706 -2.673462
v 6.142664 2.598487 -2.673462
v 3.532298 2.598487 -2.679935
v 3.543539 0.827706 -4.799501
v 3.532298 0.827706 -2.679935
v 3.532298 2.598487 -2.679935
v 3.543539 2.598487 -4.799501
v 3.534058 0.827706 -6.936014
v 3.534058 2.598487 -6.936014
v 6.153945 0.827706 -4.799501
v 6.144320 0.827706 -6.948384
v 6.144320 2.598487 -6.948384
v 6.153945 2.598487 -4.799501
v 6.142664 0.827706 -2.673462
v 6.142664 2.598487 -2.673462
v 3.534058 0.827706 -6.936014
vt -0.367968 0.000500
vt -0.367968 0.999500
vt 0.706267 0.999500
vt 0.702350 0.999500
vt 0.702350 0.000500
vt -0.371929 0.000500
vt -0.371929 0.999500
vt 0.705359 0.999500
vt 0.705359 0.000500
vt 0.170415 0.000500
vt 0.170415 0.999500
vt -0.368807 0.000500
vt -0.368807 0.999500
vt 0.706992 0.999500
vt 0.706992 0.000500
vt 0.164649 0.000500
vt 0.164649 0.999500
vt -0.371929 0.000500
vt -0.371929 0.999500
vt 0.706267 0.000500
vt 0.000499 0.999499
vt 0.999500 0.999499
vt 0.999500 0.679176
vt 0.000500 0.679178
vt 0.999501 0.679178
vt 0.999501 0.999501
vt 0.000500 0.999501
vt 0.500000 0.999500
vt 0.999501 0.999500
vt 0.999501 0.679176
vt 0.500000 0.679176
vt 0.000500 0.999500
vt 0.000500 0.679176
vt 0.500000 0.679176
vt 0.999500 0.679176
vt 0.999500 0.999501
vt 0.500000 0.999501
vt 0.000500 0.679176
vt 0.000500 0.999501
vt 0.497331 0.677600
vt 0.999501 0.681268
vt 0.996610 0.998829
vt 0.497331 0.995216
vt 0.000500 0.681899
vt 0.002012 0.999501
vt 0.000499 0.679176
vt 0.998829 0.999500
vt 0.004167 0.999500
vt 0.004167 0.000500
vt 0.000500 0.000500
vt 0.995202 0.000500
vt 0.995202 0.999500
vt 0.000500 0.999500
vt 0.502669 0.000500
vt 0.997988 0.000500
vt 0.997988 0.999500
vt 0.502669 0.999500
vt 0.003390 0.000500
vt 0.003390 0.999500
vt 0.497331 0.000500
vt 0.999500 0.000500
vt 0.999500 0.999500
vt 0.497331 0.999500
vt 0.000500 0.000500
vt 0.000500 0.999500
vt 0.998829 0.000500
vn 0.004739 0.000000 -0.999989
vn 0.004739 0.000000 -0.999989
vn 0.004739 0.000000 -0.999989
vn 0.002480 0.000000 0.999997
vn 0.002480 0.000000 0.999997
vn 0.002480 0.000000 0.999997
vn 0.002480 0.000000 0.999997
vn 0.002480 0.000000 0.999997
vn 0.002480 0.000000 0.999997
vn 0.999986 0.000000 -0.005304
vn 0.999986 0.000000 -0.005304
vn 1.000000 0.000000 -0.000433
vn 1.000000 0.000000 -0.000433
vn 1.000000 0.000000 -0.000433
vn 0.999986 0.000000 -0.005304
vn 1.000000 0.000000 -0.000433
vn 1.000000 0.000000 -0.000433
vn 0.999990 0.000000 0.004438
vn 0.999990 0.000000 0.004438
vn 0.999990 0.000000 0.004438
vn 1.000000 0.000000 -0.000433
vn -0.999990 0.000000 -0.004479
vn -0.999990 0.000000 -0.004479
vn -1.000000 0.000000 0.000413
vn -1.000000 0.000000 0.000413
vn -1.000000 0.000000 0.000413
vn -0.999990 0.000000 -0.004479
vn -1.000000 0.000000 0.000413
vn -1.000000 0.000000 0.000413
vn -0.999986 0.000000 0.005306
vn -0.999986 0.000000 0.005306
vn -0.999986 0.000000 0.005306
vn -1.000000 0.000000 0.000413
vn 0.004739 0.000000 -0.999989
vn 0.004739 0.000000 -0.999989
vn 0.004739 0.000000 -0.999989
vn -0.004739 0.000000 -0.999989
vn -0.004739 0.000000 -0.999989
vn -0.004739 0.000000 -0.999989
vn -0.002480 0.000000 0.999997
vn -0.002480 0.000000 0.999997
vn -0.002480 0.000000 0.999997
vn -0.002480 0.000000 0.999997
vn -0.002480 0.000000 0.999997
vn -0.002480 0.000000 0.999997
vn -1.000000 0.000000 -0.000433
vn -0.999990 0.000000 0.004438
vn -0.999990 0.000000 0.004438
vn -0.999990 0.000000 0.004438
vn -1.000000 0.000000 -0.000433
vn -1.000000 0.000000 -0.000433
vn -0.999986 0.000000 -0.005304
vn -1.000000 0.000000 -0.000433
vn -1.000000 0.000000 -0.000433
vn -1.000000 0.000000 -0.000433
vn -0.999986 0.000000 -0.005304
vn -0.999986 0.000000 -0.005304
vn 1.000000 0.000000 0.000413
vn 0.999990 0.000000 -0.004479
vn 0.999990 0.000000 -0.004479
vn 0.999990 0.000000 -0.004479
vn 1.000000 0.000000 0.000413
vn 1.000000 0.000000 0.000413
vn 0.999986 0.000000 0.005306
vn 1.000000 0.000000 0.000413
vn 1.000000 0.000000 0.000413
vn 1.000000 0.000000 0.000413
vn 0.999986 0.000000 0.005306
vn 0.999986 0.000000 0.005306
vn 0.000000 1.000000 0.000000
vn 0.000000 1.000000 0.000000
vn 0.000000 1.000000 0.000000
vn 0.000000 1.000000 0.000000
vn 0.000000 1.000000 0.000000
vn 0.000000 1.000000 0.000000
vn 0.000000 1.000000 0.000000
vn 0.000000 1.000000 0.000000
vn 0.000000 1.000000 0.000000
vn 0.000000 1.000000 0.000000
vn 0.000000 1.000000 0.000000
vn 0.000000 1.000000 0.000000
vn -0.004739 0.000000 -0.999989
vn -0.004739 0.000000 -0.999989
vn -0.004739 0.000000 -0.999989
vn -0.004739 0.000000 -0.999989
vn -0.004739 0.000000 -0.999989
vn -0.004739 0.000000 -0.999989
vn -0.002480 0.000000 0.999997
vn -0.002480 0.000000 0.999997
vn -0.002480 0.000000 0.999997
vn -0.002480 0.000000 0.999997
vn -0.002480 0.000000 0.999997
vn -0.002480 0.000000 0.999997
vn -1.000000 0.000000 -0.000433
vn -0.999986 0.000000 -0.005304
vn -0.999986 0.000000 -0.005304
vn -0.999986 0.000000 -0.005304
vn -1.000000 0.000000 -0.000433
vn -1.000000 0.000000 -0.000433
vn -0.999990 0.000000 0.004438
vn -1.000000 0.000000 -0.000433
vn -1.000000 0.000000 -0.000433
vn -1.000000 0.000000 -0.000433
vn -0.999990 0.000000 0.004438
vn -0.999990 0.000000 0.004438
vn 1.000000 0.000000 0.000413
vn 0.999990 0.000000 -0.004479
vn 0.999990 0.000000 -0.004479
vn 0.999990 0.000000 -0.004479
vn 1.000000 0.000000 0.000413
vn 1.000000 0.000000 0.000413
vn 0.999986 0.000000 0.005306
vn 1.000000 0.000000 0.000413
vn 1.000000 0.000000 0.000413
vn 1.000000 0.000000 0.000413
vn 0.999986 0.000000 0.005306
vn 0.999986 0.000000 0.005306
vn -0.004739 0.000000 -0.999989
vn -0.004739 0.000000 -0.999989
vn -0.004739 0.000000 -0.999989
s off
g pecera_cristal:Geoset7
usemtl pecera_cristal:mat_dalaran_aquarium_water
f 1/1/1 2/2/2 3/3/3
f 4/4/4 5/5/5 6/6/6
f 6/6/7 7/7/8 4/4/9
f 8/8/10 9/9/11 10/10/12
f 10/10/13 11/11/14 8/8/15
f 11/11/16 10/10/17 12/12/18
f 12/12/19 13/13/20 11/11/21
f 14/14/22 15/15/23 16/16/24
f 16/16/25 17/17/26 14/14/27
f 17/17/28 16/16/29 18/18/30
f 18/18/31 19/19/32 17/17/33
f 3/3/34 20/20/35 1/1/36
usemtl pecera_cristal:mat_dalaran_aquarium_01
f 21/21/37 22/22/38 23/23/39
f 24/24/40 25/25/41 26/26/42
f 26/26/43 27/27/44 24/24/45
f 28/28/46 29/29/47 30/30/48
f 30/30/49 31/31/50 28/28/51
f 32/32/52 28/28/53 31/31/54
f 31/31/55 33/33/56 32/32/57
f 34/34/58 35/35/59 36/36/60
f 36/36/61 37/37/62 34/34/63
f 38/38/64 34/34/65 37/37/66
f 37/37/67 39/39/68 38/38/69
f 40/40/70 41/41/71 42/42/72
f 42/42/73 43/43/74 40/40/75
f 44/44/76 40/40/77 43/43/78
f 43/43/79 45/45/80 44/44/81
f 23/23/82 46/46/83 21/21/84
usemtl pecera_cristal:mat_dalaran_aquarium_water
f 87/47/85 88/48/86 89/49/87
f 90/50/88 91/51/89 92/52/90
f 92/52/91 93/53/92 90/50/93
f 94/54/94 95/55/95 96/56/96
f 96/56/97 97/57/98 94/54/99
f 98/58/100 94/54/101 97/57/102
f 97/57/103 99/59/104 98/58/105
f 100/60/106 101/61/107 102/62/108
f 102/62/109 103/63/110 100/60/111
f 104/64/112 100/60/113 103/63/114
f 103/63/115 105/65/116 104/64/117
f 89/49/118 106/66/119 87/47/120
g default
v 3.554156 0.836030 -6.928288
v 3.554156 2.590162 -6.928288
v 6.139876 2.590162 -6.916034
v 3.555796 2.590162 -2.693558
v 3.555796 0.836030 -2.693558
v 6.141620 0.836030 -2.699971
v 6.141620 2.590162 -2.699971
v 6.141620 2.590162 -2.699971
v 6.141620 0.836030 -2.699971
v 6.130485 0.836030 -4.799608
v 6.130485 2.590162 -4.799608
v 6.139876 0.836030 -6.916034
v 6.139876 2.590162 -6.916034
v 3.554156 2.590162 -6.928288
v 3.554156 0.836030 -6.928288
v 3.544621 0.836030 -4.799608
v 3.544621 2.590162 -4.799608
v 3.555796 0.836030 -2.693558
v 3.555796 2.590162 -2.693558
v 6.139876 0.836030 -6.916034
v 3.495818 2.624351 -6.998093
v 6.182330 2.624351 -7.010825
v 6.182330 0.801842 -7.010825
v 3.494005 0.801842 -2.617685
v 6.180626 0.801842 -2.611022
v 6.180626 2.624351 -2.611022
v 3.494005 2.624351 -2.617685
v 3.505575 2.624351 -4.799168
v 3.495818 2.624351 -6.998093
v 3.495818 0.801842 -6.998093
v 3.505575 0.801842 -4.799168
v 3.494005 2.624351 -2.617685
v 3.494005 0.801842 -2.617685
v 6.192238 0.801842 -4.799168
v 6.182330 0.801842 -7.010825
v 6.182330 2.624351 -7.010825
v 6.192238 2.624351 -4.799168
v 6.180626 0.801842 -2.611022
v 6.180626 2.624351 -2.611022
v 6.192238 2.624351 -4.799168
v 6.182330 2.624351 -7.010825
v 3.495818 2.624351 -6.998093
v 3.505575 2.624351 -4.799168
v 6.180626 2.624351 -2.611022
v 3.494005 2.624351 -2.617685
v 3.495818 0.801842 -6.998093
v 3.534058 2.598487 -6.936014
v 6.144320 2.598487 -6.948384
v 6.144320 0.827706 -6.948384
v 3.532298 0.827706 -2.679935
v 6.142664 0.827706 -2.673462
v 6.142664 2.598487 -2.673462
v 3.532298 2.598487 -2.679935
v 3.543539 0.827706 -4.799501
v 3.532298 0.827706 -2.679935
v 3.532298 2.598487 -2.679935
v 3.543539 2.598487 -4.799501
v 3.534058 0.827706 -6.936014
v 3.534058 2.598487 -6.936014
v 6.153945 0.827706 -4.799501
v 6.144320 0.827706 -6.948384
v 6.144320 2.598487 -6.948384
v 6.153945 2.598487 -4.799501
v 6.142664 0.827706 -2.673462
v 6.142664 2.598487 -2.673462
v 3.534058 0.827706 -6.936014
v 3.554156 0.836030 -6.928288
v 3.554156 2.590162 -6.928288
v 6.139876 2.590162 -6.916034
v 3.555796 2.590162 -2.693558
v 3.555796 0.836030 -2.693558
v 6.141620 0.836030 -2.699971
v 6.141620 2.590162 -2.699971
v 6.141620 2.590162 -2.699971
v 6.141620 0.836030 -2.699971
v 6.130485 0.836030 -4.799608
v 6.130485 2.590162 -4.799608
v 6.139876 0.836030 -6.916034
v 6.139876 2.590162 -6.916034
v 3.554156 2.590162 -6.928288
v 3.554156 0.836030 -6.928288
v 3.544621 0.836030 -4.799608
v 3.544621 2.590162 -4.799608
v 3.555796 0.836030 -2.693558
v 3.555796 2.590162 -2.693558
v 6.139876 0.836030 -6.916034
v 3.534058 2.598487 -6.936014
v 6.144320 2.598487 -6.948384
v 6.144320 0.827706 -6.948384
v 3.532298 0.827706 -2.679935
v 6.142664 0.827706 -2.673462
v 6.142664 2.598487 -2.673462
v 3.532298 2.598487 -2.679935
v 3.543539 0.827706 -4.799501
v 3.532298 0.827706 -2.679935
v 3.532298 2.598487 -2.679935
v 3.543539 2.598487 -4.799501
v 3.534058 0.827706 -6.936014
v 3.534058 2.598487 -6.936014
v 6.153945 0.827706 -4.799501
v 6.144320 0.827706 -6.948384
v 6.144320 2.598487 -6.948384
v 6.153945 2.598487 -4.799501
v 6.142664 0.827706 -2.673462
v 6.142664 2.598487 -2.673462
v 3.534058 0.827706 -6.936014
vt -0.367968 0.000500
vt -0.367968 0.999500
vt 0.706267 0.999500
vt 0.702350 0.999500
vt 0.702350 0.000500
vt -0.371929 0.000500
vt -0.371929 0.999500
vt 0.705359 0.999500
vt 0.705359 0.000500
vt 0.170415 0.000500
vt 0.170415 0.999500
vt -0.368807 0.000500
vt -0.368807 0.999500
vt 0.706992 0.999500
vt 0.706992 0.000500
vt 0.164649 0.000500
vt 0.164649 0.999500
vt -0.371929 0.000500
vt -0.371929 0.999500
vt 0.706267 0.000500
vt 0.000499 0.999499
vt 0.999500 0.999499
vt 0.999500 0.679176
vt 0.000500 0.679178
vt 0.999501 0.679178
vt 0.999501 0.999501
vt 0.000500 0.999501
vt 0.500000 0.999500
vt 0.999501 0.999500
vt 0.999501 0.679176
vt 0.500000 0.679176
vt 0.000500 0.999500
vt 0.000500 0.679176
vt 0.500000 0.679176
vt 0.999500 0.679176
vt 0.999500 0.999501
vt 0.500000 0.999501
vt 0.000500 0.679176
vt 0.000500 0.999501
vt 0.497331 0.677600
vt 0.999501 0.681268
vt 0.996610 0.998829
vt 0.497331 0.995216
vt 0.000500 0.681899
vt 0.002012 0.999501
vt 0.000499 0.679176
vt 0.998829 0.999500
vt 0.004167 0.999500
vt 0.004167 0.000500
vt 0.000500 0.000500
vt 0.995202 0.000500
vt 0.995202 0.999500
vt 0.000500 0.999500
vt 0.502669 0.000500
vt 0.997988 0.000500
vt 0.997988 0.999500
vt 0.502669 0.999500
vt 0.003390 0.000500
vt 0.003390 0.999500
vt 0.497331 0.000500
vt 0.999500 0.000500
vt 0.999500 0.999500
vt 0.497331 0.999500
vt 0.000500 0.000500
vt 0.000500 0.999500
vt 0.998829 0.000500
vn 0.004739 0.000000 -0.999989
vn 0.004739 0.000000 -0.999989
vn 0.004739 0.000000 -0.999989
vn 0.002480 0.000000 0.999997
vn 0.002480 0.000000 0.999997
vn 0.002480 0.000000 0.999997
vn 0.002480 0.000000 0.999997
vn 0.002480 0.000000 0.999997
vn 0.002480 0.000000 0.999997
vn 0.999986 0.000000 -0.005304
vn 0.999986 0.000000 -0.005304
vn 1.000000 0.000000 -0.000433
vn 1.000000 0.000000 -0.000433
vn 1.000000 0.000000 -0.000433
vn 0.999986 0.000000 -0.005304
vn 1.000000 0.000000 -0.000433
vn 1.000000 0.000000 -0.000433
vn 0.999990 0.000000 0.004438
vn 0.999990 0.000000 0.004438
vn 0.999990 0.000000 0.004438
vn 1.000000 0.000000 -0.000433
vn -0.999990 0.000000 -0.004479
vn -0.999990 0.000000 -0.004479
vn -1.000000 0.000000 0.000413
vn -1.000000 0.000000 0.000413
vn -1.000000 0.000000 0.000413
vn -0.999990 0.000000 -0.004479
vn -1.000000 0.000000 0.000413
vn -1.000000 0.000000 0.000413
vn -0.999986 0.000000 0.005306
vn -0.999986 0.000000 0.005306
vn -0.999986 0.000000 0.005306
vn -1.000000 0.000000 0.000413
vn 0.004739 0.000000 -0.999989
vn 0.004739 0.000000 -0.999989
vn 0.004739 0.000000 -0.999989
vn -0.004739 0.000000 -0.999989
vn -0.004739 0.000000 -0.999989
vn -0.004739 0.000000 -0.999989
vn -0.002480 0.000000 0.999997
vn -0.002480 0.000000 0.999997
vn -0.002480 0.000000 0.999997
vn -0.002480 0.000000 0.999997
vn -0.002480 0.000000 0.999997
vn -0.002480 0.000000 0.999997
vn -1.000000 0.000000 -0.000433
vn -0.999990 0.000000 0.004438
vn -0.999990 0.000000 0.004438
vn -0.999990 0.000000 0.004438
vn -1.000000 0.000000 -0.000433
vn -1.000000 0.000000 -0.000433
vn -0.999986 0.000000 -0.005304
vn -1.000000 0.000000 -0.000433
vn -1.000000 0.000000 -0.000433
vn -1.000000 0.000000 -0.000433
vn -0.999986 0.000000 -0.005304
vn -0.999986 0.000000 -0.005304
vn 1.000000 0.000000 0.000413
vn 0.999990 0.000000 -0.004479
vn 0.999990 0.000000 -0.004479
vn 0.999990 0.000000 -0.004479
vn 1.000000 0.000000 0.000413
vn 1.000000 0.000000 0.000413
vn 0.999986 0.000000 0.005306
vn 1.000000 0.000000 0.000413
vn 1.000000 0.000000 0.000413
vn 1.000000 0.000000 0.000413
vn 0.999986 0.000000 0.005306
vn 0.999986 0.000000 0.005306
vn 0.000000 1.000000 0.000000
vn 0.000000 1.000000 0.000000
vn 0.000000 1.000000 0.000000
vn 0.000000 1.000000 0.000000
vn 0.000000 1.000000 0.000000
vn 0.000000 1.000000 0.000000
vn 0.000000 1.000000 0.000000
vn 0.000000 1.000000 0.000000
vn 0.000000 1.000000 0.000000
vn 0.000000 1.000000 0.000000
vn 0.000000 1.000000 0.000000
vn 0.000000 1.000000 0.000000
vn -0.004739 0.000000 -0.999989
vn -0.004739 0.000000 -0.999989
vn -0.004739 0.000000 -0.999989
vn -0.004739 0.000000 -0.999989
vn -0.004739 0.000000 -0.999989
vn -0.004739 0.000000 -0.999989
vn -0.002480 0.000000 0.999997
vn -0.002480 0.000000 0.999997
vn -0.002480 0.000000 0.999997
vn -0.002480 0.000000 0.999997
vn -0.002480 0.000000 0.999997
vn -0.002480 0.000000 0.999997
vn -1.000000 0.000000 -0.000433
vn -0.999986 0.000000 -0.005304
vn -0.999986 0.000000 -0.005304
vn -0.999986 0.000000 -0.005304
vn -1.000000 0.000000 -0.000433
vn -1.000000 0.000000 -0.000433
vn -0.999990 0.000000 0.004438
vn -1.000000 0.000000 -0.000433
vn -1.000000 0.000000 -0.000433
vn -1.000000 0.000000 -0.000433
vn -0.999990 0.000000 0.004438
vn -0.999990 0.000000 0.004438
vn 1.000000 0.000000 0.000413
vn 0.999990 0.000000 -0.004479
vn 0.999990 0.000000 -0.004479
vn 0.999990 0.000000 -0.004479
vn 1.000000 0.000000 0.000413
vn 1.000000 0.000000 0.000413
vn 0.999986 0.000000 0.005306
vn 1.000000 0.000000 0.000413
vn 1.000000 0.000000 0.000413
vn 1.000000 0.000000 0.000413
vn 0.999986 0.000000 0.005306
vn 0.999986 0.000000 0.005306
vn -0.004739 0.000000 -0.999989
vn -0.004739 0.000000 -0.999989
vn -0.004739 0.000000 -0.999989
s off
g pecera_cristal:Geoset7
f 107/67/121 108/68/122 109/69/123
f 110/70/124 111/71/125 112/72/126
f 112/72/127 113/73/128 110/70/129
f 114/74/130 115/75/131 116/76/132
f 116/76/133 117/77/134 114/74/135
f 117/77/136 116/76/137 118/78/138
f 118/78/139 119/79/140 117/77/141
f 120/80/142 121/81/143 122/82/144
f 122/82/145 123/83/146 120/80/147
f 123/83/148 122/82/149 124/84/150
f 124/84/151 125/85/152 123/83/153
f 109/69/154 126/86/155 107/67/156
f 127/87/157 128/88/158 129/89/159
f 130/90/160 131/91/161 132/92/162
f 132/92/163 133/93/164 130/90/165
f 134/94/166 135/95/167 136/96/168
f 136/96/169 137/97/170 134/94/171
f 138/98/172 134/94/173 137/97/174
f 137/97/175 139/99/176 138/98/177
f 140/100/178 141/101/179 142/102/180
f 142/102/181 143/103/182 140/100/183
f 144/104/184 140/100/185 143/103/186
f 143/103/187 145/105/188 144/104/189
f 146/106/190 147/107/191 148/108/192
f 148/108/193 149/109/194 146/106/195
f 150/110/196 146/106/197 149/109/198
f 149/109/199 151/111/200 150/110/201
f 129/89/202 152/112/203 127/87/204
f 193/113/205 194/114/206 195/115/207
f 196/116/208 197/117/209 198/118/210
f 198/118/211 199/119/212 196/116/213
f 200/120/214 201/121/215 202/122/216
f 202/122/217 203/123/218 200/120/219
f 204/124/220 200/120/221 203/123/222
f 203/123/223 205/125/224 204/124/225
f 206/126/226 207/127/227 208/128/228
f 208/128/229 209/129/230 206/126/231
f 210/130/232 206/126/233 209/129/234
f 209/129/235 211/131/236 210/130/237
f 195/115/238 212/132/239 193/113/240
